Patient4_TMGait_0pt7_02_right_20_EMG.mot
version=1
nRows=20
nColumns=33
inDegrees=no
endheader
time	1LAddLong	2LGlutMax	3LGlutMed	4LIliopsoas	5LSemiMemb	6LBicFemLong	7LRecFem	8LVastMed	9LVastLat	10LGasMed	11LTibAnt	12lTibPost	13LPeroneusLong	14LSol	15LExtDigLong	16LFlexDigLong	17RAddLong	18RGlutMax	19RGlutMed	20RIliopsoas	21RSemiMemb	22RBicFemLong	23RRecFem	24RVastMed	25RVastLat	26RGasMed	27RTibAnt	28RTibPost	29RPeroneusLong	30RSol	31RExtDigLong	32RFlexDigLong
22.905	-0.017853	0.3685	0.049744	0.006409	-0.054016	-0.43869	0.024719	-0.03418	0.40192	-0.04715	0.050964	0.001984	-0.31632	-0.052795	-0.021667	-0.000763	0.002899	0.0737	-0.053253	0.11566	0.26199	0.039673	-0.48599	-0.095825	0.002441	-0.010223	0.1236	0.1059	-0.33081	0.59509	-0.005798	-0.014496
22.906	-0.027771	0.39536	0.025787	0.009308	-0.072937	-0.27542	0.077362	-0.033875	0.21439	-0.032654	0.093231	-0.002136	-0.17563	-0.11093	0.14969	0.018311	0.003052	0.048981	-0.35873	0.043945	0.2652	0.039063	-0.51773	-0.08316	0.00061	-0.009155	0.09903	0.039978	-0.41107	0.37888	-0.010376	-0.005798
22.907	-0.027008	0.45639	0.008392	-0.019989	-0.028687	0.039825	-0.000153	-0.028534	0.21378	-0.017395	0.10269	0.002136	-0.022736	-0.14496	0.18005	0.027924	-0.000305	0.078125	-0.47638	-0.056458	0.2655	0.039978	-0.52429	-0.074921	0.004883	-0.014801	-0.038757	0.011292	-0.15411	0.009613	-0.001373	-0.002594
22.908	-0.032654	0.48782	-0.018768	-0.01358	-0.076904	0.14603	-0.054169	-0.006561	0.12497	-0.002136	0.058136	-0.006866	-0.037384	-0.094604	0.15472	0.005188	-0.003967	0.085754	-0.2182	-0.11581	0.27679	0.037689	-0.50537	-0.055237	0.007629	-0.010986	-0.13321	-0.011749	0.36148	-0.056915	-0.00061	-0.002899
22.909	-0.015259	0.42526	-0.027466	-0.023499	-0.11475	0.018158	-0.03006	-0.003357	0.03006	0.016632	-0.016785	0.001678	0.027008	-0.089417	0.11292	0.006409	0.00412	0.085602	-0.27863	-0.096741	0.29388	-0.006866	-0.49942	-0.065613	-0.011597	-0.01236	-0.11383	-0.019073	0.29892	0.27863	-0.003052	0.001221
22.91	-0.018616	0.44113	-0.006561	-0.005951	-0.06012	-0.12466	0.017242	-0.003967	-0.096283	0.013275	-0.002289	-0.004578	0.04364	-0.074615	0.15701	-0.016479	0.000916	0.11917	-0.25101	-0.090027	0.28564	-0.028229	-0.46692	-0.093842	0.010834	-0.010071	-0.074158	-0.022125	0.32318	0.30136	0.005646	-0.006104
22.911	-0.024261	0.40756	-0.01297	0.027161	0.003204	-0.047302	0.1294	-0.011902	-0.21896	-0.000458	-0.006714	-0.00412	0.006104	-0.094299	0.20554	0.007477	-0.001526	0.083771	-0.34866	0.008545	0.26184	0.011749	-0.48447	-0.089417	0.009766	-0.005188	-0.042114	-0.027771	0.38422	0.19455	-0.001221	-0.010681
22.912	-0.020447	0.30823	0.001221	-0.015106	0.042725	0.044403	0.18188	-0.007324	-0.16541	0.003967	0.001831	-0.005341	0.006256	-0.049438	0.1918	0.003967	-0.011292	0.086212	-0.28183	0.07019	0.25375	0.027771	-0.47882	-0.068207	-0.002289	0.005341	0.012054	-0.033722	0.15976	-0.088501	-0.002594	-0.012665
22.913	-0.029297	0.34607	0.037537	-0.00473	0.014038	0.052338	0.21729	0.011597	0.016022	0.003967	0.000916	-0.005646	0.005341	-0.025024	0.14755	-0.007782	0.002594	0.077667	-0.26337	0.11185	0.22827	0.051727	-0.4953	-0.082855	0.015259	0.023651	-0.020752	-0.026855	0.043488	-0.19959	-0.004425	-0.015106
22.914	-0.022278	0.28793	0.030518	0.005493	-0.009155	-0.059204	0.23346	0.009308	-0.050354	0.000763	0.003357	0.005188	0.005035	-0.022888	0.098419	-0.019226	0.006866	0.036469	-0.21469	0.12665	0.22537	0.089722	-0.51041	-0.058441	0.02533	0.033722	-0.045624	-0.025635	0.10376	-0.19363	-0.003662	-0.01297
22.915	-0.001984	0.30075	0.037384	0.009155	0.083466	-0.14862	0.25848	-0.000763	-0.21027	0.001373	0.010986	-0.009613	0.005341	-0.019226	0.073853	-0.003204	0.008392	0.11719	-0.40848	0.085907	0.21835	0.070496	-0.48981	-0.094299	0.015869	0.046692	-0.038147	-0.022125	0.066681	-0.092926	-0.003357	-0.012665
22.916	0.012207	0.36407	0.038147	-0.001831	0.12619	-0.098877	0.22369	-0.007019	-0.34424	0.011597	0.011749	-0.011139	-0.012054	-0.037842	0.043182	-0.001526	0.005798	0.14648	-0.57388	0.068817	0.21286	0.057526	-0.47943	-0.022736	0.012512	0.059814	0.011902	-0.023499	-0.39841	-0.034943	-0.006104	-0.018616
22.917	0.015411	0.37033	0.028839	0.023346	0.10956	0.16159	0.15076	-0.00885	-0.33997	0.020599	0.015717	0.000763	-0.023346	-0.018616	0.028381	-0.007019	0.007324	0.13748	-0.8168	0.097198	0.18097	0.036163	-0.50262	-0.04715	0.006714	0.042267	0.051117	-0.02655	-0.37903	-0.0177	-0.001373	-0.024872
22.918	0.028534	0.36331	-0.012817	0.014496	0.078888	0.2977	0.12543	-0.005951	-0.25864	0.001068	0.018463	0.00473	0.006104	-0.027008	0.016632	-0.006256	0.014801	0.10941	-0.45898	0.009613	0.18265	-0.063934	-0.46646	-0.070648	0.000763	0.03418	0.011902	-0.038452	-0.090637	0.001526	0.002747	-0.021973
22.919	0.010681	0.40787	-0.005035	0.00885	0.026245	0.41473	0.067749	-0.009918	-0.23834	-0.007629	0.014496	-0.00412	-0.003204	-0.021362	-0.008087	-0.009155	0.007629	0.13504	0.27054	-0.10193	0.17029	-0.06012	-0.41962	-0.028229	0.016785	0.02182	0.00473	-0.048065	0.13321	-0.085907	-0.001221	-0.020142
22.92	0.002899	0.45273	0.026398	-0.01236	-0.064087	0.56274	-0.078278	-0.008545	-0.28534	-0.014343	0.019379	-0.004883	-0.012207	-0.007019	-0.00351	-0.001984	0.019684	0.14496	0.13458	-0.075989	0.15152	0.015869	-0.42694	-0.073547	0.002899	0.032959	0.017395	-0.058289	-0.045471	-0.19089	-0.001678	-0.025177
22.921	-0.005341	0.39322	0.1442	-0.002747	-0.15732	0.55145	-0.1236	-0.018005	-0.31769	-0.016937	0.016022	-0.003967	0.019531	-0.007935	0.006714	0.011139	0.00885	0.14481	-0.50415	0.000153	0.16174	0.014801	-0.47989	-0.050964	0.014038	0.055084	0.054626	0.044708	-0.75104	-0.51605	-0.001221	-0.020447
22.922	0.00885	0.31967	0.16098	-0.009613	-0.18524	0.31845	-0.047302	-0.013123	-0.37033	0.00473	0.030518	0.002594	0.010529	0.016327	0.003357	0.011597	0.017548	0.12589	-0.53543	0.035248	0.15091	0.016022	-0.47913	-0.044861	0.020752	0.056915	-0.052032	0.010681	-0.63248	-0.68222	-0.00061	-0.01358
22.923	0.032349	0.34088	0.20081	-0.015869	-0.085449	0.21835	-0.027924	-0.004272	-0.28946	0.013733	0.023956	0.006714	-0.01709	-0.003204	0.013885	0.008698	0.013123	0.17334	-0.11368	0.044098	0.14099	0.019989	-0.50476	-0.062256	-0.009003	0.031891	-0.1738	-0.037537	0.15564	-0.52567	0.000305	-0.00885
22.924	0.04425	0.3183	0.14343	-0.010071	0.086365	-0.13001	-0.019684	-0.007324	-0.26901	0.036011	0.033875	0.003967	-0.043793	-0.019226	0.017853	-0.001373	0.017395	0.22537	-0.23483	-0.030365	0.14893	0.004272	-0.49255	-0.068512	0.003967	-0.030823	-0.14664	-0.042419	0.16602	-0.72266	0.001526	-0.014801
